<svg width="33" height="33" viewBox="0 0 33 33" fill="none" xmlns="http://www.w3.org/2000/svg">
<rect x="0.532715" y="0.476624" width="32" height="32" rx="16" fill="url(#paint0_linear_144_829)"/>
<path d="M16.6698 19.1433C16.101 19.1433 15.606 19.035 15.1849 18.8185C14.7638 18.5949 14.4388 18.2806 14.2097 17.8754C13.9807 17.4703 13.8662 16.9953 13.8662 16.4504C13.8662 16.0383 13.929 15.6715 14.0546 15.3502C14.1876 15.0219 14.376 14.746 14.6197 14.5224C14.8635 14.2919 15.159 14.1173 15.5063 13.9985C15.8535 13.8728 16.2413 13.8099 16.6698 13.8099C16.9136 13.8099 17.1759 13.8414 17.4566 13.9042C17.7447 13.9671 18.0144 14.0719 18.2655 14.2186C18.3837 14.2884 18.4613 14.3723 18.4982 14.4701C18.5352 14.5678 18.5426 14.6691 18.5204 14.7739C18.4982 14.8717 18.4502 14.959 18.3764 15.0359C18.3099 15.1057 18.2249 15.1511 18.1215 15.1721C18.0181 15.1861 17.9035 15.1616 17.778 15.0987C17.6154 15.0079 17.4492 14.9416 17.2793 14.8997C17.1094 14.8508 16.9468 14.8263 16.7917 14.8263C16.5479 14.8263 16.3337 14.8647 16.149 14.9416C15.9643 15.0114 15.8055 15.1162 15.6725 15.2559C15.5469 15.3886 15.4509 15.5563 15.3844 15.7589C15.3179 15.9614 15.2846 16.1954 15.2846 16.4609C15.2846 16.9778 15.4139 17.3864 15.6725 17.6868C15.9384 17.9802 16.3115 18.1269 16.7917 18.1269C16.9468 18.1269 17.1057 18.1059 17.2682 18.064C17.4381 18.0221 17.608 17.9558 17.778 17.8649C17.9035 17.8021 18.0144 17.7811 18.1104 17.8021C18.2138 17.823 18.2988 17.8719 18.3653 17.9488C18.4318 18.0186 18.4724 18.1059 18.4872 18.2107C18.5019 18.3085 18.4872 18.4063 18.4428 18.5041C18.4059 18.6019 18.332 18.6822 18.2212 18.7451C17.9774 18.8848 17.7189 18.9861 17.4455 19.049C17.1722 19.1118 16.9136 19.1433 16.6698 19.1433Z" fill="white"/>
<path d="M16.5327 13.4766V19.4766" stroke="white" stroke-linecap="round" stroke-linejoin="round"/>
<path d="M23.1995 16.4766C23.1995 20.1566 20.2129 23.1433 16.5329 23.1433C12.8529 23.1433 9.86621 20.1566 9.86621 16.4766C9.86621 12.7966 12.8529 9.80994 16.5329 9.80994" stroke="white" stroke-linecap="round" stroke-linejoin="round"/>
<path d="M19.8662 10.4766V13.1433H22.5329" stroke="white" stroke-linecap="round" stroke-linejoin="round"/>
<path d="M23.1995 9.80994L19.8662 13.1433" stroke="white" stroke-linecap="round" stroke-linejoin="round"/>
<defs>
<linearGradient id="paint0_linear_144_829" x1="3" y1="8.8598" x2="40.7683" y2="28.1514" gradientUnits="userSpaceOnUse">
<stop stop-color="#E0AD0F"/>
<stop offset="0.738102" stop-color="#A07801"/>
</linearGradient>
</defs>
</svg>
