<svg width="17" height="17" viewBox="0 0 17 17" fill="none" xmlns="http://www.w3.org/2000/svg">
<path d="M8.66981 10.676C8.10097 10.676 7.606 10.5677 7.1849 10.3512C6.76381 10.1276 6.43875 9.81329 6.20974 9.40814C5.98072 9.00299 5.86621 8.52798 5.86621 7.98312C5.86621 7.57099 5.92901 7.20425 6.0546 6.88293C6.18757 6.55461 6.37596 6.27869 6.61975 6.05516C6.86354 5.82464 7.15904 5.65001 7.50626 5.53126C7.85348 5.40552 8.24133 5.34265 8.66981 5.34265C8.9136 5.34265 9.17586 5.37409 9.45659 5.43695C9.74471 5.49982 10.0144 5.6046 10.2655 5.7513C10.3837 5.82115 10.4613 5.90497 10.4982 6.00277C10.5352 6.10056 10.5426 6.20185 10.5204 6.30663C10.4982 6.40443 10.4502 6.49175 10.3764 6.56858C10.3099 6.63844 10.2249 6.68384 10.1215 6.7048C10.0181 6.71877 9.90354 6.69432 9.77795 6.63145C9.61543 6.54064 9.44921 6.47428 9.27929 6.43237C9.10938 6.38347 8.94685 6.35902 8.79171 6.35902C8.54792 6.35902 8.33368 6.39744 8.14899 6.47428C7.96429 6.54414 7.80546 6.64892 7.67248 6.78862C7.54689 6.92135 7.45086 7.08899 7.38437 7.29157C7.31788 7.49415 7.28463 7.72816 7.28463 7.9936C7.28463 8.51052 7.41392 8.91916 7.67248 9.21953C7.93844 9.51292 8.31151 9.65961 8.79171 9.65961C8.94685 9.65961 9.10568 9.63866 9.26821 9.59674C9.43812 9.55483 9.60804 9.48847 9.77795 9.39766C9.90354 9.33479 10.0144 9.31384 10.1104 9.33479C10.2138 9.35575 10.2988 9.40465 10.3653 9.48149C10.4318 9.55134 10.4724 9.63866 10.4872 9.74344C10.5019 9.84123 10.4872 9.93903 10.4428 10.0368C10.4059 10.1346 10.332 10.215 10.2212 10.2778C9.97742 10.4175 9.71885 10.5188 9.44551 10.5817C9.17217 10.6446 8.9136 10.676 8.66981 10.676Z" fill="white"/>
<path d="M8.53271 5.00934V11.0093" stroke="white" stroke-linecap="round" stroke-linejoin="round"/>
<path d="M15.1995 8.00932C15.1995 11.6893 12.2129 14.676 8.53288 14.676C4.85288 14.676 1.86621 11.6893 1.86621 8.00932C1.86621 4.32932 4.85288 1.34265 8.53288 1.34265" stroke="white" stroke-linecap="round" stroke-linejoin="round"/>
<path d="M15.1994 4.00932V1.34265H12.5327" stroke="white" stroke-linecap="round" stroke-linejoin="round"/>
<path d="M11.8662 4.67598L15.1995 1.34265" stroke="white" stroke-linecap="round" stroke-linejoin="round"/>
</svg>
