<svg width="33" height="33" viewBox="0 0 33 33" fill="none" xmlns="http://www.w3.org/2000/svg">
<rect x="0.532715" y="0.00933838" width="32" height="32" rx="16" fill="url(#paint0_linear_144_851)"/>
<path d="M16.6698 18.676C16.101 18.676 15.606 18.5677 15.1849 18.3512C14.7638 18.1276 14.4388 17.8133 14.2097 17.4081C13.9807 17.003 13.8662 16.528 13.8662 15.9831C13.8662 15.571 13.929 15.2043 14.0546 14.8829C14.1876 14.5546 14.376 14.2787 14.6197 14.0552C14.8635 13.8246 15.159 13.65 15.5063 13.5313C15.8535 13.4055 16.2413 13.3427 16.6698 13.3427C16.9136 13.3427 17.1759 13.3741 17.4566 13.437C17.7447 13.4998 18.0144 13.6046 18.2655 13.7513C18.3837 13.8211 18.4613 13.905 18.4982 14.0028C18.5352 14.1006 18.5426 14.2019 18.5204 14.3066C18.4982 14.4044 18.4502 14.4917 18.3764 14.5686C18.3099 14.6384 18.2249 14.6838 18.1215 14.7048C18.0181 14.7188 17.9035 14.6943 17.778 14.6315C17.6154 14.5406 17.4492 14.4743 17.2793 14.4324C17.1094 14.3835 16.9468 14.359 16.7917 14.359C16.5479 14.359 16.3337 14.3974 16.149 14.4743C15.9643 14.5441 15.8055 14.6489 15.6725 14.7886C15.5469 14.9213 15.4509 15.089 15.3844 15.2916C15.3179 15.4941 15.2846 15.7282 15.2846 15.9936C15.2846 16.5105 15.4139 16.9192 15.6725 17.2195C15.9384 17.5129 16.3115 17.6596 16.7917 17.6596C16.9468 17.6596 17.1057 17.6387 17.2682 17.5967C17.4381 17.5548 17.608 17.4885 17.778 17.3977C17.9035 17.3348 18.0144 17.3138 18.1104 17.3348C18.2138 17.3557 18.2988 17.4046 18.3653 17.4815C18.4318 17.5513 18.4724 17.6387 18.4872 17.7434C18.5019 17.8412 18.4872 17.939 18.4428 18.0368C18.4059 18.1346 18.332 18.215 18.2212 18.2778C17.9774 18.4175 17.7189 18.5188 17.4455 18.5817C17.1722 18.6446 16.9136 18.676 16.6698 18.676Z" fill="white"/>
<path d="M16.5327 13.0093V19.0093" stroke="white" stroke-linecap="round" stroke-linejoin="round"/>
<path d="M23.1995 16.0093C23.1995 19.6893 20.2129 22.676 16.5329 22.676C12.8529 22.676 9.86621 19.6893 9.86621 16.0093C9.86621 12.3293 12.8529 9.34265 16.5329 9.34265" stroke="white" stroke-linecap="round" stroke-linejoin="round"/>
<path d="M23.1994 12.0093V9.34265H20.5327" stroke="white" stroke-linecap="round" stroke-linejoin="round"/>
<path d="M19.8662 12.676L23.1995 9.34265" stroke="white" stroke-linecap="round" stroke-linejoin="round"/>
<defs>
<linearGradient id="paint0_linear_144_851" x1="32.5327" y1="32.0093" x2="-5.54441" y2="20.9692" gradientUnits="userSpaceOnUse">
<stop stop-color="#022E64"/>
<stop offset="1" stop-color="#0E5DBD"/>
</linearGradient>
</defs>
</svg>
