<svg width="17" height="17" viewBox="0 0 17 17" fill="none" xmlns="http://www.w3.org/2000/svg">
<path d="M8.66981 11.1433C8.10097 11.1433 7.606 11.035 7.1849 10.8184C6.76381 10.5949 6.43875 10.2806 6.20974 9.87542C5.98072 9.47027 5.86621 8.99527 5.86621 8.45041C5.86621 8.03827 5.92901 7.67154 6.0546 7.35021C6.18757 7.0219 6.37596 6.74598 6.61975 6.52244C6.86354 6.29193 7.15904 6.11729 7.50626 5.99854C7.85348 5.8728 8.24133 5.80994 8.66981 5.80994C8.9136 5.80994 9.17586 5.84137 9.45659 5.90424C9.74471 5.96711 10.0144 6.07189 10.2655 6.21858C10.3837 6.28843 10.4613 6.37226 10.4982 6.47005C10.5352 6.56785 10.5426 6.66914 10.5204 6.77392C10.4982 6.87171 10.4502 6.95903 10.3764 7.03587C10.3099 7.10572 10.2249 7.15113 10.1215 7.17208C10.0181 7.18606 9.90354 7.16161 9.77795 7.09874C9.61543 7.00793 9.44921 6.94157 9.27929 6.89965C9.10938 6.85076 8.94685 6.82631 8.79171 6.82631C8.54792 6.82631 8.33368 6.86473 8.14899 6.94157C7.96429 7.01142 7.80546 7.1162 7.67248 7.25591C7.54689 7.38863 7.45086 7.55628 7.38437 7.75886C7.31788 7.96143 7.28463 8.19544 7.28463 8.46089C7.28463 8.9778 7.41392 9.38645 7.67248 9.68682C7.93844 9.98021 8.31151 10.1269 8.79171 10.1269C8.94685 10.1269 9.10568 10.1059 9.26821 10.064C9.43812 10.0221 9.60804 9.95576 9.77795 9.86495C9.90354 9.80208 10.0144 9.78112 10.1104 9.80208C10.2138 9.82303 10.2988 9.87193 10.3653 9.94877C10.4318 10.0186 10.4724 10.1059 10.4872 10.2107C10.5019 10.3085 10.4872 10.4063 10.4428 10.5041C10.4059 10.6019 10.332 10.6822 10.2212 10.7451C9.97742 10.8848 9.71885 10.9861 9.44551 11.049C9.17217 11.1118 8.9136 11.1433 8.66981 11.1433Z" fill="white"/>
<path d="M8.53271 5.47662V11.4766" stroke="white" stroke-linecap="round" stroke-linejoin="round"/>
<path d="M15.1995 8.4766C15.1995 12.1566 12.2129 15.1433 8.53288 15.1433C4.85288 15.1433 1.86621 12.1566 1.86621 8.4766C1.86621 4.7966 4.85288 1.80994 8.53288 1.80994" stroke="white" stroke-linecap="round" stroke-linejoin="round"/>
<path d="M11.8662 2.47662V5.14329H14.5329" stroke="white" stroke-linecap="round" stroke-linejoin="round"/>
<path d="M15.1995 1.80994L11.8662 5.14327" stroke="white" stroke-linecap="round" stroke-linejoin="round"/>
</svg>
