<svg width="17" height="17" viewBox="0 0 17 17" fill="none" xmlns="http://www.w3.org/2000/svg">
<path d="M3.86613 10.0468C2.3928 10.0468 1.19946 11.2401 1.19946 12.7134C1.19946 13.2134 1.33946 13.6868 1.58613 14.0868C2.04613 14.8601 2.8928 15.3801 3.86613 15.3801C4.83946 15.3801 5.68613 14.8601 6.14613 14.0868C6.3928 13.6868 6.5328 13.2134 6.5328 12.7134C6.5328 11.2401 5.33946 10.0468 3.86613 10.0468ZM4.85946 13.2001H4.36613V13.7201C4.36613 13.9934 4.13946 14.2201 3.86613 14.2201C3.5928 14.2201 3.36613 13.9934 3.36613 13.7201V13.2001H2.8728C2.59946 13.2001 2.3728 12.9734 2.3728 12.7001C2.3728 12.4268 2.59946 12.2001 2.8728 12.2001H3.36613V11.7268C3.36613 11.4534 3.5928 11.2268 3.86613 11.2268C4.13946 11.2268 4.36613 11.4534 4.36613 11.7268V12.2001H4.85946C5.1328 12.2001 5.35946 12.4268 5.35946 12.7001C5.35946 12.9734 5.13946 13.2001 4.85946 13.2001Z" fill="white"/>
<path d="M14.866 8.38007H13.1993C12.466 8.38007 11.866 8.98007 11.866 9.7134C11.866 10.4467 12.466 11.0467 13.1993 11.0467H14.866C15.0526 11.0467 15.1993 10.9001 15.1993 10.7134V8.7134C15.1993 8.52673 15.0526 8.38007 14.866 8.38007Z" fill="white"/>
<path d="M11.5528 3.64676C11.7528 3.84009 11.5861 4.14009 11.3061 4.14009L5.7861 4.13342C5.4661 4.13342 5.3061 3.74676 5.53277 3.52009L6.69944 2.34676C7.6861 1.36676 9.27944 1.36676 10.2661 2.34676L11.5261 3.62009C11.5328 3.62676 11.5461 3.64009 11.5528 3.64676Z" fill="white"/>
<path d="M15.1128 12.4868C14.7061 13.8601 13.5328 14.7134 11.9328 14.7134H7.59945C7.33945 14.7134 7.17279 14.4268 7.27945 14.1868C7.47945 13.7201 7.60612 13.1934 7.60612 12.7134C7.60612 10.6934 5.95945 9.04677 3.93945 9.04677C3.43279 9.04677 2.93945 9.15344 2.48612 9.35344C2.23945 9.46011 1.93945 9.29344 1.93945 9.02677V8.04677C1.93945 6.23344 3.03279 4.96677 4.73279 4.75344C4.89945 4.72677 5.07945 4.71344 5.26612 4.71344H11.9328C12.1061 4.71344 12.2728 4.72011 12.4328 4.74677C13.7795 4.90011 14.7528 5.72011 15.1128 6.94011C15.1795 7.16011 15.0195 7.38011 14.7928 7.38011H13.2661C11.8195 7.38011 10.6728 8.70011 10.9861 10.2001C11.2061 11.2934 12.2195 12.0468 13.3328 12.0468H14.7928C15.0261 12.0468 15.1795 12.2734 15.1128 12.4868Z" fill="white"/>
</svg>
