<svg width="17" height="17" viewBox="0 0 17 17" fill="none" xmlns="http://www.w3.org/2000/svg">
<path d="M14.866 9.31464H13.1993C12.466 9.31464 11.866 9.91464 11.866 10.648C11.866 11.3813 12.466 11.9813 13.1993 11.9813H14.866C15.0526 11.9813 15.1993 11.8346 15.1993 11.648V9.64797C15.1993 9.4613 15.0526 9.31464 14.866 9.31464Z" fill="white"/>
<path d="M11.5528 4.58133C11.7528 4.77466 11.5861 5.07466 11.3061 5.07466L5.7861 5.06799C5.4661 5.06799 5.3061 4.68133 5.53277 4.45466L6.69944 3.28133C7.6861 2.30133 9.27944 2.30133 10.2661 3.28133L11.5261 4.55466C11.5328 4.56133 11.5461 4.57466 11.5528 4.58133Z" fill="white"/>
<path d="M15.1128 13.4213C14.7061 14.7947 13.5328 15.648 11.9328 15.648H7.59945C7.33945 15.648 7.17279 15.3613 7.27945 15.1213C7.47945 14.6547 7.60612 14.128 7.60612 13.648C7.60612 11.628 5.95945 9.98134 3.93945 9.98134C3.43279 9.98134 2.93945 10.088 2.48612 10.288C2.23945 10.3947 1.93945 10.228 1.93945 9.96134V8.98134C1.93945 7.16801 3.03279 5.90134 4.73279 5.68801C4.89945 5.66134 5.07945 5.64801 5.26612 5.64801H11.9328C12.1061 5.64801 12.2728 5.65468 12.4328 5.68134C13.7795 5.83468 14.7528 6.65468 15.1128 7.87468C15.1795 8.09468 15.0195 8.31468 14.7928 8.31468H13.2661C11.8195 8.31468 10.6728 9.63468 10.9861 11.1347C11.2061 12.228 12.2195 12.9813 13.3328 12.9813H14.7928C15.0261 12.9813 15.1795 13.208 15.1128 13.4213Z" fill="white"/>
<path fill-rule="evenodd" clip-rule="evenodd" d="M3.86613 16.3147C5.33889 16.3147 6.5328 15.1207 6.5328 13.648C6.5328 12.1752 5.33889 10.9813 3.86613 10.9813C2.39337 10.9813 1.19946 12.1752 1.19946 13.648C1.19946 15.1207 2.39337 16.3147 3.86613 16.3147ZM2.5328 12.9813C2.16461 12.9813 1.86613 13.2798 1.86613 13.648C1.86613 14.0162 2.16461 14.3147 2.5328 14.3147H5.19946C5.56765 14.3147 5.86613 14.0162 5.86613 13.648C5.86613 13.2798 5.56765 12.9813 5.19946 12.9813H2.5328Z" fill="white"/>
</svg>
